<?xml version="1.0" encoding="UTF-8"?>
<svg id="Layer_2" data-name="Layer 2" xmlns="http://www.w3.org/2000/svg" viewBox="0 0 32 32" width="32" height="32">
  <defs>
    <style>
      .cls-1 {
        fill: #fff;
        stroke-width: 0px;
      }
    </style>
  </defs>
  <g id="Layer_1-2" data-name="Layer 1">
    <path class="cls-1" d="M25.24,30.67c-.17-1.18-.56-2.29-1.13-3.29l6.63-3.87-.67-1.15-6.7,3.91c-.66-.85-1.47-1.58-2.38-2.16l3.98-6.84-1.15-.67-4.01,6.88c-.97-.43-2.02-.71-3.13-.79v-8.02h-1.33v8.02c-1.1.08-2.15.35-3.12.78l-4.05-6.86-1.15.68,4.02,6.81c-.93.58-1.74,1.32-2.41,2.18l-6.71-3.89-.67,1.15,6.63,3.85c-.57.99-.95,2.1-1.12,3.27H0v1.33h32v-1.33h-6.76ZM8.11,30.67c.64-3.78,3.93-6.66,7.89-6.66s7.25,2.89,7.89,6.66h-15.78ZM10.81,5.98l-.94-.94L14.14.77c1.03-1.02,2.69-1.03,3.72,0l4.27,4.27-.94.94-4.27-4.27c-.08-.08-.16-.14-.25-.19v10.49h-1.33V1.52c-.09.05-.17.12-.25.19l-4.27,4.27h0Z"/>
  </g>
</svg>