<?xml version="1.0" encoding="UTF-8"?>
<svg id="Layer_1" data-name="Layer 1" xmlns="http://www.w3.org/2000/svg" viewBox="0 0 511.98 512" width="32" height="32">
  <defs>
    <style>
      .cls-1 {
        fill: #fff;
        stroke-width: 0px;
      }
    </style>
  </defs>
  <path class="cls-1" d="M501.33,512h-97.66c-15.74,0-29.29-11.75-31.51-27.33-8.17-57.39-58.11-100.67-116.16-100.67s-107.99,43.29-116.16,100.67c-2.22,15.57-15.74,27.33-31.51,27.33H10.67c-5.89,0-10.67-4.78-10.67-10.67s4.78-10.67,10.67-10.67h97.69c5.18,0,9.64-3.86,10.37-9,2.05-14.36,6.29-27.99,12.39-40.53l-91.71-54.53c-5.06-3.01-6.72-9.56-3.71-14.61s9.58-6.72,14.61-3.71l91.58,54.44c9.64-13.89,21.76-25.92,35.63-35.5l-54.38-93.87c-2.97-5.1-1.22-11.63,3.88-14.57,5.1-2.94,11.63-1.19,14.57,3.88l54.34,93.82c15.21-7.38,31.91-12.03,49.39-13.4v-96.43c0-5.89,4.78-10.67,10.67-10.67s10.67,4.78,10.67,10.67v96.43c17.45,1.34,34.13,6.02,49.32,13.38l53.82-93.78c2.94-5.14,9.47-6.87,14.57-3.95,5.1,2.92,6.87,9.45,3.95,14.57l-53.89,93.87c13.93,9.6,26.09,21.7,35.75,35.63l92.71-53.53c5.08-2.94,11.63-1.22,14.57,3.9,2.97,5.1,1.22,11.63-3.9,14.57l-92.63,53.46c6.08,12.52,10.3,26.09,12.35,40.43.73,5.23,5.1,9,10.37,9h97.66c5.89,0,10.67,4.78,10.67,10.67s-4.78,10.67-10.67,10.67l.02.02ZM256,192.02c-11.22,0-21.78-4.37-29.74-12.31l-52.65-55c-4.07-4.27-3.93-11.01.34-15.08,4.25-4.05,11.01-3.93,15.08.34l52.48,54.83c1.17,1.17,2.45,2.18,3.82,2.99V10.67c0-5.89,4.78-10.67,10.67-10.67s10.67,4.78,10.67,10.67v157.08c1.41-.85,2.75-1.9,3.99-3.11l52.31-54.66c4.1-4.22,10.84-4.42,15.08-.34,4.25,4.07,4.39,10.82.34,15.08l-52.48,54.83c-8.11,8.11-18.67,12.48-29.89,12.48h-.02Z"/>
</svg>