<?xml version="1.0" encoding="UTF-8"?>
<svg id="Layer_2" data-name="Layer 2" xmlns="http://www.w3.org/2000/svg" viewBox="0 0 32 32" width="32" height="32">
  <defs>
    <style>
      .cls-1 {
        fill: #fff;
        stroke-width: 0px;
      }
    </style>
  </defs>
  <g id="Layer_1-2" data-name="Layer 1">
    <path class="cls-1" d="M0,15.33c0-.37.3-.67.67-.67h9.33c.37,0,.67.3.67.67s-.3.67-.67.67H.67c-.37,0-.67-.3-.67-.67ZM27.33,14.67h-.27c1.38-1.1,2.27-2.77,2.27-4.67,0-3.31-2.69-6-6-6s-6,2.69-6,6c0,.37.3.67.67.67s.67-.3.67-.67c0-2.57,2.09-4.67,4.67-4.67s4.67,2.09,4.67,4.67-2.09,4.67-4.67,4.67h-9.33c-.37,0-.67.3-.67.67s.3.67.67.67h13.33c1.84,0,3.33,1.49,3.33,3.33s-1.5,3.33-3.33,3.33-3.33-1.49-3.33-3.33c0-.37-.3-.67-.67-.67s-.67.3-.67.67c0,2.57,2.09,4.67,4.67,4.67s4.67-2.09,4.67-4.67-2.09-4.67-4.67-4.67ZM14.67,21.33H.67c-.37,0-.67.3-.67.67s.3.67.67.67h14c2.21,0,4,1.79,4,4s-1.79,4-4,4-4-1.79-4-4v-.67c0-.37-.3-.67-.67-.67s-.67.3-.67.67v.67c0,2.94,2.39,5.33,5.33,5.33s5.33-2.39,5.33-5.33-2.39-5.33-5.33-5.33ZM.67,9.33h9.33c2.57,0,4.67-2.09,4.67-4.67S12.57,0,10,0s-4.67,2.09-4.67,4.67c0,.37.3.67.67.67s.67-.3.67-.67c0-1.84,1.5-3.33,3.33-3.33s3.33,1.49,3.33,3.33-1.5,3.33-3.33,3.33H.67c-.37,0-.67.3-.67.67s.3.67.67.67Z"/>
  </g>
</svg>